<svg width="37" height="37" xmlns="http://www.w3.org/2000/svg" xmlns:xlink="http://www.w3.org/1999/xlink" overflow="hidden"><defs><clipPath id="clip0"><rect x="0" y="0" width="37" height="37"/></clipPath></defs><g clip-path="url(#clip0)"><path d="M18.5 0.00202706C8.28385 0.00314658 0.00293499 8.28588 0.0040545 18.502 0.00517402 28.7182 8.28791 36.9991 18.5041 36.998 28.7194 36.9969 37 28.7154 37 18.5 36.9888 8.28769 28.7123 0.0120828 18.5 0.00202809ZM18.5 32.8769C10.5593 32.8764 4.12249 26.4387 4.12305 18.498 4.12361 10.5572 10.5613 4.12046 18.502 4.12102 26.4428 4.12158 32.8795 10.5593 32.879 18.5 32.8706 26.4375 26.4375 32.8697 18.5 32.8769Z" fill="#FFFFFF"/><path d="M24.5721 21.8507C22.7204 25.0159 18.6535 26.0806 15.4884 24.2289 12.3232 22.3773 11.2585 18.3103 13.1102 15.1452 14.9618 11.9801 19.0288 10.9153 22.1939 12.767 23.1776 13.3425 23.9966 14.1615 24.5721 15.1452L24.7251 15.4097 29.1847 15.4097 28.9171 14.6922C26.8152 9.12195 20.5957 6.31032 15.0255 8.41221 9.45531 10.5141 6.64368 16.7336 8.74557 22.3038 10.8475 27.874 17.0669 30.6856 22.6371 28.5837 25.5356 27.49 27.8234 25.2022 28.9171 22.3038L29.1847 21.5852 24.7251 21.5852Z" fill="#FFFFFF"/></g></svg>