<svg width="67" height="67" xmlns="http://www.w3.org/2000/svg" xmlns:xlink="http://www.w3.org/1999/xlink" overflow="hidden"><defs><clipPath id="clip0"><rect x="0" y="0" width="67" height="67"/></clipPath></defs><g clip-path="url(#clip0)"><path d="M33.5 67C14.9985 67 1.89543e-06 52.0015 1.89543e-06 33.5 1.89543e-06 14.9985 14.9985 1.89543e-06 33.5 1.89543e-06 52.0015 1.89543e-06 67 14.9985 67 33.5 67 52.0015 52.0015 67 33.5 67ZM33.5 1.63388C15.9008 1.63388 1.63388 15.9008 1.63388 33.5 1.63388 51.0992 15.9008 65.3661 33.5 65.3661 51.0992 65.3661 65.3661 51.0992 65.3661 33.5 65.3661 15.9008 51.0992 1.63388 33.5 1.63388Z" fill="#FFFFFF"/><path d="M26.4075 28.5142 29.4128 28.5142 29.4128 25.566C29.4128 24.2587 29.4128 22.2492 30.3935 21.007 31.4889 19.5047 33.279 18.6702 35.1339 18.7971 36.9673 18.7167 38.8026 18.9009 40.5835 19.3441L39.8231 23.846C39.0239 23.6247 38.2008 23.5012 37.3718 23.4784 36.1867 23.4784 35.1329 23.9031 35.1329 25.1122L35.1329 28.5182 39.9864 28.5182 39.6518 32.926 35.1339 32.926 35.1339 48.2129 29.4148 48.2129 29.4148 32.922 26.4095 32.922Z" fill="#FFFFFF"/></g></svg>