<svg width="67" height="67" xmlns="http://www.w3.org/2000/svg" xmlns:xlink="http://www.w3.org/1999/xlink" overflow="hidden"><defs><clipPath id="clip0"><rect x="0" y="0" width="67" height="67"/></clipPath></defs><g clip-path="url(#clip0)"><path d="M33.5 67C14.9985 67 1.89543e-06 52.0015 1.89543e-06 33.5 1.89543e-06 14.9985 14.9985 1.89543e-06 33.5 1.89543e-06 52.0015 1.89543e-06 67 14.9985 67 33.5 67 52.0015 52.0015 67 33.5 67ZM33.5 1.63388C15.9008 1.63388 1.63388 15.9008 1.63388 33.5 1.63388 51.0992 15.9008 65.3661 33.5 65.3661 51.0992 65.3661 65.3661 51.0992 65.3661 33.5 65.3661 15.9008 51.0992 1.63388 33.5 1.63388Z" fill="#FFFFFF"/><path d="M42.4878 18.7931 24.5122 18.7931C21.3536 18.7931 18.7931 21.3536 18.7931 24.5122L18.7931 42.4878C18.7931 45.6464 21.3536 48.2069 24.5122 48.2069L42.4878 48.2069C45.6464 48.2069 48.2069 45.6464 48.2069 42.4878L48.2069 24.5122C48.2069 21.3536 45.6464 18.7931 42.4878 18.7931ZM44.1217 22.1841 44.7668 22.1841 44.7668 27.1678 39.8001 27.1678 39.8001 22.1841ZM29.3116 30.4857C30.9838 28.1753 34.2123 27.6579 36.5228 29.3301 38.8332 31.0023 39.3505 34.2308 37.6783 36.5412 36.0061 38.8516 32.7776 39.369 30.4672 37.6968 29.1218 36.7231 28.3269 35.1618 28.3309 33.501 28.3335 32.4179 28.6766 31.3631 29.3116 30.4857ZM45.3479 42.4878C45.3613 44.0446 44.1102 45.3176 42.5533 45.331 42.5315 45.3312 42.5097 45.3312 42.4878 45.3308L24.5122 45.3308C22.9554 45.3492 21.6786 44.102 21.6602 42.5452 21.66 42.5261 21.66 42.507 21.6601 42.4878L21.6601 30.4857 26.0479 30.4857C24.3802 34.6011 26.3646 39.2892 30.48 40.9568 34.5954 42.6245 39.2835 40.6401 40.9511 36.5247 41.7358 34.5882 41.7358 32.4222 40.9511 30.4857L45.3469 30.4857Z" fill="#FFFFFF"/></g></svg>