<svg width="67" height="67" xmlns="http://www.w3.org/2000/svg" xmlns:xlink="http://www.w3.org/1999/xlink" overflow="hidden"><defs><clipPath id="clip0"><rect x="0" y="0" width="67" height="67"/></clipPath></defs><g clip-path="url(#clip0)"><path d="M33.5 67C14.9985 67 1.89543e-06 52.0015 1.89543e-06 33.5 1.89543e-06 14.9985 14.9985 1.89543e-06 33.5 1.89543e-06 52.0015 1.89543e-06 67 14.9985 67 33.5 67 52.0015 52.0015 67 33.5 67ZM33.5 1.63388C15.9008 1.63388 1.63388 15.9008 1.63388 33.5 1.63388 51.0992 15.9008 65.3661 33.5 65.3661 51.0992 65.3661 65.3661 51.0992 65.3661 33.5 65.3661 15.9008 51.0992 1.63388 33.5 1.63388Z" fill="#FFFFFF"/><path d="M25.2725 45.6825 19.5534 45.6825 19.5534 27.3151 25.2725 27.3151ZM22.2572 25.0191 22.2161 25.0191C20.4543 25.1411 18.9272 23.8118 18.8052 22.05 18.6832 20.2882 20.0125 18.7611 21.7742 18.6391 21.9488 18.627 22.1241 18.6292 22.2983 18.6458 24.0592 18.5046 25.6012 19.8176 25.7424 21.5785 25.8837 23.3394 24.5707 24.8814 22.8098 25.0226 22.6258 25.0374 22.4409 25.0362 22.2572 25.0191ZM48.2029 45.6825 41.6714 45.6825 41.6714 36.1797C41.6714 33.7284 40.6586 31.9964 38.4026 31.9964 36.9909 31.9961 35.7385 32.9023 35.2972 34.2433 35.1605 34.729 35.1133 35.2354 35.1579 35.7379L35.1579 45.6815 28.7697 45.6815C28.7697 45.6815 28.8518 28.8518 28.7697 27.3221L35.208 27.3221 35.208 30.2272C35.5917 28.969 37.6593 27.1719 40.9271 27.1719 45.0123 27.1719 48.2069 29.8105 48.2069 35.4975Z" fill="#FFFFFF"/></g></svg>