<svg width="67" height="67" xmlns="http://www.w3.org/2000/svg" xmlns:xlink="http://www.w3.org/1999/xlink" overflow="hidden"><defs><clipPath id="clip0"><rect x="0" y="0" width="67" height="67"/></clipPath></defs><g clip-path="url(#clip0)"><path d="M33.5 67C14.9985 67 1.89543e-06 52.0015 1.89543e-06 33.5 1.89543e-06 14.9985 14.9985 1.89543e-06 33.5 1.89543e-06 52.0015 1.89543e-06 67 14.9985 67 33.5 67 52.0015 52.0015 67 33.5 67ZM33.5 1.63388C15.9008 1.63388 1.63388 15.9008 1.63388 33.5 1.63388 51.0992 15.9008 65.3661 33.5 65.3661 51.0992 65.3661 65.3661 51.0992 65.3661 33.5 65.3661 15.9008 51.0992 1.63388 33.5 1.63388Z" fill="#FFFFFF"/><path d="M39.5226 23.5645 39.5226 29.1744C39.3918 29.331 39.2373 29.4662 39.0648 29.5751 38.9369 29.6657 38.7879 29.7219 38.632 29.7384 38.5204 29.7445 38.412 29.6996 38.3375 29.6162 38.2531 29.5047 38.2138 29.3656 38.2273 29.2265L38.2273 23.5645 36.7197 23.5645 36.7197 29.7334C36.692 30.0883 36.7871 30.442 36.9891 30.7351 37.1906 30.9728 37.4968 31.0951 37.8066 31.0617 38.1165 31.0579 38.4213 30.9825 38.6972 30.8413 39.0203 30.6602 39.3102 30.4254 39.5547 30.1471L39.5547 30.9645 41.0663 30.9645 41.0663 23.6056ZM34.9145 23.9241C34.4902 23.548 33.9362 23.3519 33.3698 23.3772 32.7807 23.3547 32.2025 23.5398 31.7359 23.9001 31.334 24.2365 31.1118 24.7409 31.1348 25.2645L31.1348 29.0882C31.1093 29.6477 31.3231 30.1916 31.7229 30.5839 32.662 31.3277 33.9894 31.3277 34.9285 30.5839 35.3405 30.2061 35.5611 29.6633 35.5296 29.1053L35.5296 25.3296C35.5445 24.7941 35.3197 24.2799 34.9165 23.9271ZM33.9668 29.2335C33.9735 29.4044 33.9085 29.5704 33.7875 29.6913 33.6561 29.8164 33.4787 29.8813 33.2976 29.8706 33.1262 29.8806 32.9589 29.8151 32.8398 29.6913 32.7278 29.5658 32.6692 29.4015 32.6765 29.2335L32.6765 25.1984C32.67 25.0489 32.737 24.9056 32.8559 24.8147 32.9778 24.7097 33.1361 24.6568 33.2966 24.6674 33.4721 24.6577 33.6455 24.7098 33.7865 24.8147 33.9054 24.9056 33.9724 25.0489 33.9658 25.1984ZM29.2766 20.9419 28.2227 24.9489 28.0995 24.9489 27.0046 20.9419 25.2885 20.9419 27.3151 26.9635 27.3151 30.9295 29.0181 30.9295 29.0181 26.8002 30.9876 20.9419ZM41.0583 38.5729C41.161 38.7557 41.2064 38.9651 41.1885 39.174L41.1885 39.8452 40.0365 39.8452 40.0365 39.167C40.012 38.9566 40.0612 38.7441 40.1758 38.5659 40.4103 38.3156 40.8033 38.3027 41.0536 38.5372 41.0635 38.5465 41.0731 38.556 41.0824 38.5659ZM36.4011 38.5729C36.2988 38.4501 36.1439 38.3834 35.9844 38.3936 35.8861 38.3906 35.7884 38.4102 35.6989 38.4507 35.596 38.5068 35.5024 38.5784 35.4214 38.6631L35.4214 42.8505C35.5147 42.949 35.6254 43.0295 35.748 43.0879 35.8457 43.1324 35.9512 43.1573 36.0585 43.161 36.1982 43.1785 36.3372 43.1229 36.4262 43.0138 36.5188 42.88 36.562 42.7181 36.5484 42.556L36.5484 39.0438C36.566 38.8634 36.5164 38.6829 36.4091 38.5369ZM36.4011 38.5729C36.2988 38.4501 36.1439 38.3834 35.9844 38.3936 35.8861 38.3906 35.7884 38.4102 35.6989 38.4507 35.596 38.5068 35.5024 38.5784 35.4214 38.6631L35.4214 42.8505C35.5147 42.949 35.6254 43.0295 35.748 43.0879 35.8457 43.1324 35.9512 43.1573 36.0585 43.161 36.1982 43.1785 36.3372 43.1229 36.4262 43.0138 36.5188 42.88 36.562 42.7181 36.5484 42.556L36.5484 39.0438C36.566 38.8634 36.5164 38.6829 36.4091 38.5369ZM44.0085 33.4008 22.9925 33.4008C20.6847 33.4144 18.8149 35.2775 18.7931 37.5852L18.7931 41.8747C18.8019 44.1891 20.6782 46.0617 22.9925 46.0661L44.0075 46.0661C46.326 46.0568 48.202 44.1772 48.2069 41.8587L48.2069 37.5852C48.2025 35.265 46.3277 33.3825 44.0075 33.3688ZM28.6475 36.352 27.0787 36.352 27.0787 44.1227 25.567 44.1227 25.567 36.319 24.0143 36.319 24.0143 34.9956 28.6555 34.9956ZM33.0682 44.1227 31.7159 44.1227 31.7159 43.3053C31.5033 43.561 31.2421 43.7721 30.9475 43.9264 30.7124 44.0663 30.4447 44.1422 30.1711 44.1467 29.8969 44.1696 29.6296 44.0528 29.4599 43.8362 29.2923 43.5709 29.215 43.2585 29.2395 42.9456L29.2395 37.3728 30.5708 37.3728 30.5708 42.4878C30.5618 42.6092 30.5936 42.7301 30.661 42.8314 30.7267 42.9106 30.8284 42.9507 30.9305 42.9376 31.0651 42.9267 31.1932 42.8754 31.2981 42.7904 31.4596 42.6995 31.6013 42.5772 31.7149 42.4307L31.7149 37.3728 33.0632 37.3728ZM37.9709 42.7252C37.9674 43.1125 37.8321 43.4871 37.5872 43.7871 37.357 44.0487 37.0195 44.1901 36.6716 44.1708 36.4295 44.178 36.1891 44.1275 35.9703 44.0235 35.7481 43.9116 35.5508 43.7559 35.3903 43.5657L35.3903 44.1217 34.08 44.1217 34.08 34.9956 35.4284 34.9956 35.4284 37.9128C35.5932 37.7271 35.7896 37.5722 36.0084 37.455 36.2 37.3532 36.4126 37.2973 36.6295 37.2917 37.0016 37.2728 37.3601 37.4338 37.5932 37.7244 37.8444 38.088 37.9655 38.5257 37.9368 38.9666ZM42.6281 40.9281 40.0365 40.9281 40.0365 42.1623C40.0116 42.4112 40.0538 42.6624 40.1587 42.8895 40.2632 43.035 40.4388 43.1118 40.6165 43.0899 40.7893 43.1086 40.9603 43.0417 41.0743 42.9106 41.1883 42.6744 41.2338 42.411 41.2056 42.1502L41.2056 41.8397 42.603 41.8397 42.603 42.1833C42.6479 42.753 42.4592 43.3164 42.0801 43.744 41.6776 44.1208 41.1336 44.308 40.5845 44.2589 40.0538 44.2907 39.5354 44.0913 39.163 43.712 38.8011 43.288 38.6166 42.7408 38.6481 42.1843L38.6481 39.179C38.6281 38.6454 38.8361 38.1286 39.2201 37.7575 39.6154 37.3879 40.1418 37.1911 40.6826 37.2105 41.2027 37.1812 41.7113 37.3708 42.0851 37.7335 42.4421 38.1308 42.6248 38.6548 42.592 39.188ZM35.9523 38.3626C35.854 38.3596 35.7564 38.3791 35.6668 38.4197 35.5639 38.4757 35.4703 38.5474 35.3893 38.632L35.3893 42.8154C35.4826 42.914 35.5933 42.9945 35.7159 43.0528 35.8136 43.0974 35.9191 43.1222 36.0265 43.126 36.1662 43.1435 36.3051 43.0878 36.3941 42.9787 36.4867 42.8449 36.5299 42.683 36.5163 42.5209L36.5163 39.0438C36.5317 38.8624 36.4792 38.6818 36.3691 38.5369 36.2667 38.414 36.1119 38.3474 35.9523 38.3576ZM36.369 38.5419C36.2667 38.419 36.1119 38.3524 35.9523 38.3626 35.854 38.3596 35.7564 38.3791 35.6668 38.4197 35.5639 38.4757 35.4703 38.5474 35.3893 38.632L35.3893 42.8154C35.4826 42.914 35.5933 42.9945 35.7159 43.0528 35.8136 43.0974 35.9191 43.1222 36.0265 43.126 36.1662 43.1435 36.3051 43.0878 36.3941 42.9787 36.4867 42.8449 36.5299 42.683 36.5163 42.5209L36.5163 39.0438C36.5436 38.8675 36.5058 38.6874 36.4101 38.5369ZM36.369 38.5419C36.2667 38.419 36.1119 38.3524 35.9523 38.3626 35.854 38.3596 35.7564 38.3791 35.6668 38.4197 35.5639 38.4757 35.4703 38.5474 35.3893 38.632L35.3893 42.8154C35.4826 42.914 35.5933 42.9945 35.7159 43.0528 35.8136 43.0974 35.9191 43.1222 36.0265 43.126 36.1662 43.1435 36.3051 43.0878 36.3941 42.9787 36.4867 42.8449 36.5299 42.683 36.5163 42.5209L36.5163 39.0438C36.5436 38.8675 36.5058 38.6874 36.4101 38.5369Z" fill="#FFFFFF"/></g></svg>